<svg width="1170" height="370" viewBox="0 0 1170 370" fill="none" xmlns="http://www.w3.org/2000/svg">
<g clip-path="url(#clip0_162_416)">
<g filter="url(#filter0_f_162_416)">
<path d="M755.131 108.389L492.322 317.965L488.399 327L1091.29 323.297L1103.45 37H946.158L755.131 108.389Z" fill="#3301BC"/>
</g>
<g filter="url(#filter1_f_162_416)">
<path d="M325.259 192.23L95.3185 181.155L66 39.6992L1019.69 47.1359L887.756 137.642L613.838 205.047L430.387 263.275L325.259 192.23Z" fill="#8B04DB"/>
</g>
<g filter="url(#filter2_f_162_416)">
<path d="M91.9587 161.866L70.7866 299.151V304.86H677.593L581.184 294.584L788.746 127.188L665.116 168.002L425.419 228.939L410.674 235.789L304.813 174.139L91.9587 161.866Z" fill="#6589F5"/>
</g>
<g filter="url(#filter3_f_162_416)">
<path d="M408.477 120.284L393.868 257.569V263.278H812.564L746.043 253.002L889.26 85.6055L803.956 126.42L638.564 187.357L628.39 194.207L555.347 132.557L408.477 120.284Z" fill="#612FE9"/>
</g>
<g filter="url(#filter4_b_162_416)">
<rect width="1170" height="370" rx="40" fill="#7B5BFC" fill-opacity="0.2"/>
</g>
<g opacity="0.5">
<path opacity="0.1" d="M613.138 979.305C612.372 987.83 618.664 995.388 627.209 995.865C730.643 1001.63 833.149 972.067 917.765 911.772C1006.6 848.474 1069.85 755.485 1096.09 649.613C1122.34 543.742 1109.84 431.975 1060.86 334.515C1011.88 237.056 929.644 160.336 829.026 118.223C728.408 76.1109 616.043 71.385 512.244 104.9C408.445 138.415 320.061 207.959 263.069 300.961C206.077 393.963 184.237 504.286 201.499 611.987C217.941 714.579 268.829 808.344 345.534 877.973C351.871 883.726 361.671 882.902 367.205 876.373L378.497 863.053C384.032 856.525 383.203 846.766 376.889 840.989C308.996 778.859 263.956 695.488 249.344 604.319C233.914 508.04 253.437 409.418 304.384 326.279C355.332 243.141 434.342 180.972 527.133 151.012C619.923 121.051 720.371 125.276 810.318 162.922C900.265 200.568 973.776 269.152 1017.56 356.275C1061.35 443.398 1072.52 543.312 1049.06 637.955C1025.6 732.598 969.055 815.725 889.646 872.309C814.451 925.891 723.453 952.324 631.546 947.572C622.999 947.13 615.466 953.389 614.7 961.913L613.138 979.305Z" fill="#98B9FF"/>
<path opacity="0.1" d="M810.756 -147.12C813.042 -155.367 808.213 -163.925 799.914 -166.019C650.285 -203.784 492.005 -188.59 352.09 -122.732C207.495 -54.6717 92.1015 62.9846 26.8616 208.873C-38.3784 354.762 -49.1387 519.209 -3.46562 672.355C42.2075 825.502 141.285 957.191 275.778 1043.51C410.271 1129.84 571.26 1165.07 729.514 1142.81C887.768 1120.55 1032.79 1042.28 1138.26 922.204C1243.72 802.132 1302.63 648.221 1304.28 488.418C1305.88 333.786 1253.78 183.558 1157.13 63.2517C1151.77 56.5795 1141.97 55.7533 1135.43 61.2668L1104.96 86.9277C1098.42 92.4412 1097.6 102.206 1102.94 108.893C1188.68 216.224 1234.89 350.001 1233.46 487.684C1231.98 630.539 1179.32 768.126 1085.04 875.464C990.763 982.802 861.119 1052.77 719.649 1072.67C578.179 1092.57 434.264 1061.07 314.035 983.908C193.806 906.741 105.236 789.018 64.407 652.114C23.5778 515.21 33.197 368.203 91.5178 237.787C149.839 107.371 252.994 2.19266 382.253 -58.6495C506.833 -117.289 647.698 -130.997 780.988 -97.7462C789.292 -95.6746 797.829 -100.486 800.115 -108.734L810.756 -147.12Z" fill="#98B9FF"/>
<path opacity="0.2" d="M847.676 757.318C853.503 763.308 853.396 772.922 847.105 778.423C799.986 819.632 740.491 844.301 677.746 848.374C609.956 852.775 542.82 832.846 488.411 792.171C434.001 751.495 395.888 692.743 380.925 626.479C365.962 560.214 375.131 490.785 406.784 430.677C438.436 370.569 490.494 323.725 553.598 298.569C616.701 273.413 686.71 271.596 751.033 293.444C815.357 315.293 869.775 359.373 904.503 417.758C936.647 471.798 949.969 534.811 942.651 596.979C941.674 605.279 933.808 610.807 925.572 609.392V609.392C917.336 607.976 911.854 600.153 912.779 591.848C918.908 536.791 906.953 481.075 878.494 433.229C847.449 381.035 798.802 341.63 741.3 322.099C683.799 302.568 621.215 304.193 564.804 326.681C508.393 349.168 461.856 391.044 433.561 444.777C405.265 498.511 397.069 560.576 410.445 619.813C423.821 679.05 457.891 731.571 506.531 767.932C555.17 804.293 615.186 822.109 675.786 818.175C731.34 814.569 784.044 792.901 825.972 756.696C832.297 751.234 841.849 751.328 847.676 757.318V757.318Z" fill="#98B9FF"/>
</g>
</g>
<defs>
<filter id="filter0_f_162_416" x="232.399" y="-219" width="1127.05" height="802" filterUnits="userSpaceOnUse" color-interpolation-filters="sRGB">
<feFlood flood-opacity="0" result="BackgroundImageFix"/>
<feBlend mode="normal" in="SourceGraphic" in2="BackgroundImageFix" result="shape"/>
<feGaussianBlur stdDeviation="128" result="effect1_foregroundBlur_162_416"/>
</filter>
<filter id="filter1_f_162_416" x="-190" y="-216.301" width="1465.69" height="735.575" filterUnits="userSpaceOnUse" color-interpolation-filters="sRGB">
<feFlood flood-opacity="0" result="BackgroundImageFix"/>
<feBlend mode="normal" in="SourceGraphic" in2="BackgroundImageFix" result="shape"/>
<feGaussianBlur stdDeviation="128" result="effect1_foregroundBlur_162_416"/>
</filter>
<filter id="filter2_f_162_416" x="-185.213" y="-128.812" width="1229.96" height="689.672" filterUnits="userSpaceOnUse" color-interpolation-filters="sRGB">
<feFlood flood-opacity="0" result="BackgroundImageFix"/>
<feBlend mode="normal" in="SourceGraphic" in2="BackgroundImageFix" result="shape"/>
<feGaussianBlur stdDeviation="128" result="effect1_foregroundBlur_162_416"/>
</filter>
<filter id="filter3_f_162_416" x="137.868" y="-170.395" width="1007.39" height="689.672" filterUnits="userSpaceOnUse" color-interpolation-filters="sRGB">
<feFlood flood-opacity="0" result="BackgroundImageFix"/>
<feBlend mode="normal" in="SourceGraphic" in2="BackgroundImageFix" result="shape"/>
<feGaussianBlur stdDeviation="128" result="effect1_foregroundBlur_162_416"/>
</filter>
<filter id="filter4_b_162_416" x="-140" y="-140" width="1450" height="650" filterUnits="userSpaceOnUse" color-interpolation-filters="sRGB">
<feFlood flood-opacity="0" result="BackgroundImageFix"/>
<feGaussianBlur in="BackgroundImage" stdDeviation="70"/>
<feComposite in2="SourceAlpha" operator="in" result="effect1_backgroundBlur_162_416"/>
<feBlend mode="normal" in="SourceGraphic" in2="effect1_backgroundBlur_162_416" result="shape"/>
</filter>
<clipPath id="clip0_162_416">
<rect width="1170" height="370" rx="40" fill="white"/>
</clipPath>
</defs>
</svg>
