<svg width="1042" height="1025" viewBox="0 0 1042 1025" fill="none" xmlns="http://www.w3.org/2000/svg">
<path opacity="0.5" d="M168.817 865.549C162.845 871.679 162.96 881.511 169.265 887.297C254.99 965.971 364.755 1013.74 481.063 1022.7C602.529 1032.06 723.426 998.486 822.678 927.842C921.93 857.199 993.241 753.963 1024.18 636.131C1055.12 518.3 1043.72 393.348 991.981 283.057C940.237 172.766 851.428 84.1326 741.034 32.6081C630.641 -18.9164 505.666 -30.0638 387.897 1.10924C270.127 32.2823 167.033 103.798 96.586 203.19C29.1309 298.362 -4.29318 413.311 1.41485 529.525C1.83472 538.073 9.32206 544.446 17.8541 543.772L41.9588 541.867C50.4908 541.193 56.8336 533.727 56.444 525.178C51.7347 421.848 81.616 319.724 141.599 235.095C204.575 146.244 296.735 82.3126 402.014 54.4456C507.294 26.5787 619.014 36.5438 717.7 82.6038C816.385 128.664 895.776 207.897 942.031 306.491C988.287 405.084 998.474 516.785 970.816 622.119C943.158 727.454 879.41 819.741 790.684 882.892C701.959 946.044 593.884 976.054 485.3 967.691C381.875 959.725 284.238 917.427 207.783 847.757C201.458 841.992 191.662 842.098 185.69 848.229L168.817 865.549Z" fill="#31326F"/>
</svg>
