<svg width="712" height="699" viewBox="0 0 712 699" fill="none" xmlns="http://www.w3.org/2000/svg">
<path opacity="0.3" d="M636.757 548.542C643.816 553.383 653.493 551.601 658.022 544.339C695.352 484.476 714.114 414.753 711.727 344.012C709.165 268.099 682.385 194.996 635.302 135.394C588.219 75.7909 523.302 32.8142 450.045 12.7478C376.787 -7.31855 299.032 -3.42209 228.147 23.8675C157.263 51.157 96.9681 100.408 56.0793 164.419C15.1906 228.43 -4.14724 303.844 0.893402 379.633C5.93404 455.421 35.0888 527.609 84.0946 585.642C129.762 639.72 190.435 678.863 258.271 698.238C266.5 700.588 274.874 695.42 276.864 687.096L278.434 680.528C280.424 672.204 275.275 663.88 267.058 661.487C207.055 644.013 153.403 609.211 112.934 561.288C69.1256 509.41 43.0629 444.878 38.5569 377.128C34.0508 309.377 51.3378 241.962 87.89 184.739C124.442 127.517 178.342 83.4891 241.709 59.0938C305.076 34.6985 374.585 31.2152 440.073 49.1535C505.561 67.0917 563.592 105.51 605.682 158.792C647.772 212.073 671.712 277.423 674.002 345.284C676.117 407.973 659.654 469.769 626.859 522.968C622.367 530.254 624.13 539.882 631.188 544.722L636.757 548.542Z" fill="#31326F"/>
</svg>
