<svg width="102" height="27" viewBox="0 0 102 27" fill="none" xmlns="http://www.w3.org/2000/svg">
<g clip-path="url(#clip0_7517_3405)">
<path d="M44.4287 26.9437L55.1469 0H61.8251L51.1069 26.9437H44.4287Z" fill="white"/>
<path fill-rule="evenodd" clip-rule="evenodd" d="M33.0137 26.9437H40.4339L50.9458 0H43.9379L36.7236 19.7124L33.0137 26.9437ZM35.0684 15.1897L29.5097 0H22.5017L31.1794 22.2421L35.0684 15.1897Z" fill="white"/>
<path fill-rule="evenodd" clip-rule="evenodd" d="M87.943 4.88242V26.9437H94.3325V4.88242H102V0H87.943V4.88242ZM85.3029 0H78V4.88242H85.3029V0Z" fill="white"/>
<path d="M83.6537 26.9436L73.1418 5.69056e-07L65.7218 0L55.2097 26.9436H62.2179L64.2031 21.5188L69.4318 7.23133L74.6606 21.5188L76.6458 26.9436H83.6537Z" fill="white"/>
<path d="M62.0459 26.9444H76.4741L74.4886 21.5195H64.0313L62.0459 26.9444Z" fill="url(#paint0_linear_7517_3405)"/>
<path d="M28.444 26.9436L17.9321 5.69056e-07L10.5119 0L0 26.9436H7.00794L8.99327 21.5188L14.222 7.23133L19.4507 21.5188L21.436 26.9436H28.444Z" fill="white"/>
<path d="M7.00806 26.9444H21.4362L19.4508 21.5195H8.99338L7.00806 26.9444Z" fill="url(#paint1_linear_7517_3405)"/>
</g>
<defs>
<linearGradient id="paint0_linear_7517_3405" x1="74.4129" y1="24.0512" x2="64.1071" y2="24.0512" gradientUnits="userSpaceOnUse">
<stop stop-color="#CA0808" stop-opacity="0"/>
<stop offset="0.0001" stop-color="white" stop-opacity="0"/>
<stop offset="1" stop-color="white"/>
</linearGradient>
<linearGradient id="paint1_linear_7517_3405" x1="19.375" y1="24.0512" x2="9.0692" y2="24.0512" gradientUnits="userSpaceOnUse">
<stop stop-color="white" stop-opacity="0"/>
<stop offset="0.0001" stop-color="white" stop-opacity="0"/>
<stop offset="1" stop-color="white"/>
</linearGradient>
<clipPath id="clip0_7517_3405">
<rect width="102" height="27" fill="white"/>
</clipPath>
</defs>
</svg>
